<?xml version="1.0" encoding="utf-8"?>
<!-- Generator: Adobe Illustrator 13.0.0, SVG Export Plug-In . SVG Version: 6.00 Build 14948)  -->
<!DOCTYPE svg PUBLIC "-//W3C//DTD SVG 1.1//EN" "http://www.w3.org/Graphics/SVG/1.1/DTD/svg11.dtd">
<svg version="1.1" xmlns="http://www.w3.org/2000/svg" xmlns:xlink="http://www.w3.org/1999/xlink" x="0px" y="0px" width="1024px"
	 height="1024px" viewBox="0 0 1024 1024" enable-background="new 0 0 1024 1024" xml:space="preserve">
<g id="Layer_1" display="none">
	<circle display="inline" cx="506.75" cy="544.5" r="243.75"/>
	<rect x="439.125" y="37.083" display="inline" width="135.417" height="392.708"/>
	<circle display="inline" cx="513.254" cy="-106.986" r="243.75"/>
</g>
<g id="RoomTemplate">
	<path d="M229.466,512.537l-50.29-51.251l-69.277,23.718L96.488,429.34l-25.733-13.266l-33.601,47.358l-73.4,50.411l-82.95,18.938
		l-8.304-0.657V988.5h326.327l-6.314-226.995l7.963-104.745l38.053-70.82l12.157-11.814l-50.86-8.945
		C199.825,565.18,229.466,512.537,229.466,512.537z M-127.5-169.5V50.882l29.974-2.52l81.68,27.353l79.878,65.338l44.19,88.55
		l7.922,84.862l-11.996,33.501l139.022,72.448l82.458,93.538l59.07-22.511l9.295-0.015L367.49,296.134l28.074,19.489l17.525-20.319
		l26.419,5.66l16.416,24.79l14.181,41.761l12.962-34.886l6.93,33.733l-4.275,49.464l-28.629,3.065l-8.84,34.897l32.003,3.98
		l1.875,21.106l-0.696,12.41l6.458-0.01l90.335,40.417l4.693,4.741l112.253-82.798l-13.64-27.834l-2.845-94.821l31.549-81.047
		l72.604-75.917l74.344-30.605l91.259-7.671l81.681,27.353l79.877,65.339l44.191,88.55l7.923,84.861l-27.208,75.982l-51.783,72.986
		l-73.4,50.411l-82.95,18.937l-64.658-5.117l-71.132-33.266l-18.877-19.006l-114.319,84.32l7.569,21.172l6.272,89.269l-4.14,230.972
		H1482.5v-1158H-127.5z"/>
</g>
<g id="Starting_Room" display="none">
	<polygon display="inline" points="722.121,8.618 749.125,90.595 746.125,179.59 712.127,257.586 669.629,306.584 600.633,344.082 
		584.628,346.443 584.628,487.75 606.627,491.585 679.624,535.583 724.622,602.58 752.62,687.576 749.62,776.572 715.622,854.568 
		673.124,903.566 604.128,941.064 512.632,954.564 413.637,936.564 335.641,882.568 289.144,809.07 271.145,705.576 290.644,627.58 
		338.641,549.583 409.138,500.085 451.135,489.376 451.135,347.036 410.142,339.582 332.146,285.586 285.648,212.088 
		267.649,108.593 287.148,30.598 300.674,8.618 -101.879,8.618 -101.879,1154.561 1224.054,1154.561 1224.054,8.618 	"/>
</g>
<g id="Straight">
</g>
</svg>
