<?xml version="1.0" encoding="utf-8"?>
<!-- Generator: Adobe Illustrator 13.0.0, SVG Export Plug-In . SVG Version: 6.00 Build 14948)  -->
<!DOCTYPE svg PUBLIC "-//W3C//DTD SVG 1.1//EN" "http://www.w3.org/Graphics/SVG/1.1/DTD/svg11.dtd">
<svg version="1.1" xmlns="http://www.w3.org/2000/svg" xmlns:xlink="http://www.w3.org/1999/xlink" x="0px" y="0px" width="1024px"
	 height="1024px" viewBox="0 0 1024 1024" enable-background="new 0 0 1024 1024" xml:space="preserve">
<g id="Layer_1" display="none">
	<circle display="inline" cx="506.75" cy="544.5" r="243.75"/>
	<rect x="439.125" y="37.083" display="inline" width="135.417" height="392.708"/>
	<circle display="inline" cx="513.254" cy="-106.986" r="243.75"/>
</g>
<g id="RoomTemplate" display="none">
	<polygon display="inline" points="-268.869,213.105 -368.865,238.604 -439.362,288.102 -487.359,366.098 -506.858,444.093 
		-488.859,547.588 -442.362,621.086 -364.366,675.082 -265.371,693.082 -173.875,679.582 -104.879,642.084 -62.381,593.086 
		-28.383,515.09 -25.383,426.095 -53.381,341.099 -98.379,274.102 -171.376,230.104 	"/>
	<rect x="-326.868" y="0.116" display="inline" width="133.493" height="388.48"/>
</g>
<g id="Starting_Room">
	<polygon points="722.121,8.618 749.125,90.595 746.125,179.59 712.127,257.586 669.629,306.584 600.633,344.082 584.628,346.443 
		584.628,487.75 606.627,491.585 679.624,535.583 724.622,602.58 752.62,687.576 749.62,776.572 715.622,854.568 673.124,903.566 
		604.128,941.064 512.632,954.564 413.637,936.564 335.641,882.568 289.144,809.07 271.145,705.576 290.644,627.58 338.641,549.583 
		409.138,500.085 451.135,489.376 451.135,347.036 410.142,339.582 332.146,285.586 285.648,212.088 267.649,108.593 
		287.148,30.598 300.674,8.618 -101.879,8.618 -101.879,1154.561 1224.054,1154.561 1224.054,8.618 	"/>
</g>
<g id="Straight" display="none">
	<path display="inline" d="M261.311,747.681l34.136-77.936l42.583-48.925l69.062-37.377l16.009-2.332l0.248-141.307l-21.992-3.874
		l-72.92-44.126l-44.88-67.076l-27.849-85.045l3.156-88.99l31.396-71.683l-505.705,0.128l-1.473,838.673l501.932,0.883
		l-26.86-82.024L261.311,747.681z M1110.492,78.801L694.13,78.907l25.268,40.096l17.816,103.526l-19.635,77.961l-48.135,77.913
		l-70.583,49.374l-42.016,10.635l-0.25,142.34l40.979,7.525l77.902,54.133l46.368,73.58l17.816,103.526l-19.634,77.962
		l-13.565,21.956l402.552,0.706L1110.492,78.801z"/>
</g>
</svg>
